# xmcd
# 
# Track frame offsets:
#     150
#     19131
#     38216
#     52385
#     71365
# 
# Disc length: 1206
# 
# Revision: 0
# Processed by: cddbd v1.5.2PL0 Copyright (c) Steve Scherf et al.
# Submitted via: fre:ac v1.0.17
# 
DISCID=4204b405
DTITLE=加藤葉月 - 「響け！ユーフォニアム」キャラクターソングVol.2
DYEAR=2015
DGENRE=JPop
TTITLE0=Hyper tune♪
TTITLE1=Little-Note
TTITLE2=北宇治四重奏第2番 チューバ
TTITLE3=Hyper tune♪(OFF VOCAL)
TTITLE4=Little-Note(OFF VOCAL)
EXTD=
EXTT0=
EXTT1=
EXTT2=
EXTT3=
EXTT4=
PLAYORDER=
